<?xml version="1.0" standalone="no"?>
<!DOCTYPE svg PUBLIC "-//W3C//DTD SVG 20010904//EN"
 "http://www.w3.org/TR/2001/REC-SVG-20010904/DTD/svg10.dtd">
<svg version="1.0" xmlns="http://www.w3.org/2000/svg"
 width="700.000000pt" height="700.000000pt" viewBox="0 0 700.000000 700.000000"
 preserveAspectRatio="xMidYMid meet">
<metadata>
Created by potrace 1.11, written by Peter Selinger 2001-2013
</metadata>
<g transform="translate(0.000000,700.000000) scale(0.100000,-0.100000)"
fill="#000000" stroke="none">
<path d="M0 3500 l0 -3500 3500 0 3500 0 0 3500 0 3500 -3500 0 -3500 0 0
-3500z m4053 2770 l227 0 0 -229 0 -228 289 -282 289 -281 221 0 221 0 0 -227
0 -227 282 -283 283 -283 227 0 228 0 0 -227 0 -228 152 -152 153 -153 -153
-153 -152 -152 0 -223 0 -222 -222 0 -223 0 -287 -287 -288 -288 0 -222 0
-223 -222 0 -223 0 -287 -287 -288 -288 0 -222 0 -223 -222 0 -223 0 -152
-152 -153 -153 -153 153 -152 152 -228 0 -227 0 0 227 0 228 -282 282 -283
283 -227 0 -228 0 0 221 0 221 -281 289 -282 289 -228 0 -229 0 0 228 0 227
-150 150 -150 150 150 150 150 150 2 225 3 225 225 3 225 2 283 283 282 282 0
227 0 228 228 0 227 0 282 283 283 282 2 225 3 225 225 3 226 2 149 150 150
150 150 -150 150 -150 228 0z"/>
<path d="M3420 6375 l-105 -105 208 0 c114 0 207 1 207 3 0 1 -46 48 -103 105
l-102 102 -105 -105z"/>
<path d="M2840 6043 l0 -158 155 155 c85 85 155 156 155 157 0 2 -70 3 -155 3
l-155 0 0 -157z"/>
<path d="M3042 5997 l-202 -202 0 -273 0 -272 205 0 205 0 0 -210 0 -210 275
0 275 0 0 210 0 210 205 0 205 0 0 273 0 272 -203 203 -202 202 -280 0 -280 0
-203 -203z"/>
<path d="M4050 6045 c85 -85 156 -155 157 -155 2 0 3 70 3 155 l0 155 -157 0
-158 0 155 -155z"/>
<path d="M2660 5615 l-105 -105 108 -108 107 -107 0 213 c0 116 -1 212 -3 212
-1 0 -49 -47 -107 -105z"/>
<path d="M4280 5503 l0 -218 110 110 110 110 -107 107 c-59 60 -109 108 -110
108 -2 0 -3 -98 -3 -217z"/>
<path d="M2400 5355 l-105 -105 215 0 215 0 -105 105 c-58 58 -107 105 -110
105 -3 0 -52 -47 -110 -105z"/>
<path d="M4440 5355 l-105 -105 208 0 c114 0 207 1 207 3 0 1 -46 48 -103 105
l-102 102 -105 -105z"/>
<path d="M1820 5023 l0 -158 155 155 c85 85 155 156 155 157 0 2 -70 3 -155 3
l-155 0 0 -157z"/>
<path d="M2022 4977 l-202 -202 0 -272 0 -273 208 -2 207 -3 3 -212 2 -213
265 0 265 0 2 213 3 212 208 3 207 2 0 265 0 265 -207 2 -208 3 -3 208 -2 207
-273 0 -272 0 -203 -203z"/>
<path d="M3035 5030 c82 -82 151 -150 152 -150 2 0 3 68 3 150 l0 150 -152 0
-153 0 150 -150z"/>
<path d="M3860 5030 c0 -82 3 -150 8 -150 4 0 75 68 157 150 l150 150 -158 0
-157 0 0 -150z"/>
<path d="M4280 4970 l0 -210 -210 0 -210 0 0 -265 0 -265 208 -2 207 -3 3
-213 2 -212 268 2 267 3 3 213 2 212 210 0 210 0 0 268 0 267 -208 208 -207
207 -273 0 -272 0 0 -210z"/>
<path d="M5075 5025 c81 -85 151 -155 156 -155 5 0 9 70 9 155 l0 155 -156 0
-156 0 147 -155z"/>
<path d="M2840 4980 l0 -150 152 0 153 0 -150 150 c-82 83 -151 150 -152 150
-2 0 -3 -67 -3 -150z"/>
<path d="M4060 4975 l-145 -145 148 0 147 0 0 145 c0 80 -1 145 -3 145 -1 0
-67 -65 -147 -145z"/>
<path d="M3418 4648 l112 -113 112 113 113 112 -225 0 -225 0 113 -112z"/>
<path d="M3250 4488 l0 -223 115 115 115 115 -107 107 c-59 60 -111 108 -115
108 -5 0 -8 -100 -8 -222z"/>
<path d="M3685 4600 l-110 -110 113 -113 112 -112 0 223 c0 122 -1 222 -3 222
-1 0 -52 -50 -112 -110z"/>
<path d="M1640 4595 l-105 -105 108 -108 107 -107 0 213 c0 116 -1 212 -3 212
-1 0 -49 -47 -107 -105z"/>
<path d="M5300 4490 l0 -215 107 108 108 107 -108 107 -107 108 0 -215z"/>
<path d="M1380 4335 l-105 -105 215 0 215 0 -105 105 c-58 58 -107 105 -110
105 -3 0 -52 -47 -110 -105z"/>
<path d="M3420 4335 l-105 -105 208 0 c114 0 207 1 207 3 0 1 -46 48 -103 105
l-102 102 -105 -105z"/>
<path d="M5450 4335 l-105 -105 215 0 215 0 -105 105 c-58 58 -107 105 -110
105 -3 0 -52 -47 -110 -105z"/>
<path d="M800 4003 l0 -158 155 155 c85 85 155 156 155 157 0 2 -70 3 -155 3
l-155 0 0 -157z"/>
<path d="M1002 3957 l-202 -202 0 -280 0 -280 203 -203 202 -202 273 0 272 0
0 205 0 205 210 0 210 0 0 270 0 270 -210 0 -210 0 0 210 0 210 -273 0 -272 0
-203 -203z"/>
<path d="M2015 4010 c82 -82 151 -150 152 -150 2 0 3 68 3 150 l0 150 -152 0
-153 0 150 -150z"/>
<path d="M2840 4008 l0 -153 150 150 c83 82 150 151 150 152 0 2 -67 3 -150 3
l-150 0 0 -152z"/>
<path d="M3250 3950 l0 -210 -205 0 -205 0 0 -270 0 -270 205 0 205 0 0 -205
0 -205 275 0 275 0 0 205 0 205 205 0 205 0 0 270 0 270 -205 0 -205 0 0 210
0 210 -275 0 -275 0 0 -210z"/>
<path d="M4055 4010 c82 -82 151 -150 152 -150 2 0 3 68 3 150 l0 150 -152 0
-153 0 150 -150z"/>
<path d="M4880 4008 l0 -153 150 150 c83 82 150 151 150 152 0 2 -67 3 -150 3
l-150 0 0 -152z"/>
<path d="M5300 3950 l0 -210 -210 0 -210 0 0 -270 0 -270 210 0 210 0 0 -205
0 -205 273 0 272 0 203 203 202 202 0 280 0 280 -203 203 -202 202 -273 0
-272 0 0 -210z"/>
<path d="M6090 4005 c85 -85 156 -155 157 -155 2 0 3 70 3 155 l0 155 -157 0
-158 0 155 -155z"/>
<path d="M5083 3968 c-84 -84 -153 -157 -153 -161 0 -4 68 -7 150 -7 114 0
152 3 156 13 2 7 3 79 2 160 l-3 147 -152 -152z"/>
<path d="M1820 3955 l0 -155 157 0 158 0 -155 155 c-85 85 -156 155 -157 155
-2 0 -3 -70 -3 -155z"/>
<path d="M3035 3950 l-150 -150 153 0 152 0 0 150 c0 83 -1 150 -3 150 -1 0
-70 -67 -152 -150z"/>
<path d="M3860 3957 c0 -112 3 -149 13 -153 7 -2 75 -3 150 -2 l137 3 -150
150 -150 150 0 -148z"/>
<path d="M2395 3630 l110 -110 107 107 c60 59 108 109 108 110 0 2 -98 3 -217
3 l-218 0 110 -110z"/>
<path d="M4435 3630 l110 -110 107 107 c60 59 108 109 108 110 0 2 -98 3 -217
3 l-218 0 110 -110z"/>
<path d="M2240 3470 l0 -225 112 113 113 112 -113 112 -112 113 0 -225z"/>
<path d="M4697 3582 l-107 -107 115 -115 115 -115 0 223 c0 122 -3 222 -8 222
-4 0 -56 -48 -115 -108z"/>
<path d="M622 3577 l-102 -102 105 -105 105 -105 0 208 c0 114 -1 207 -3 207
-1 0 -48 -46 -105 -103z"/>
<path d="M2662 3577 l-102 -102 105 -105 105 -105 0 208 c0 114 -1 207 -3 207
-1 0 -48 -46 -105 -103z"/>
<path d="M4280 3470 l0 -215 107 108 108 107 -108 107 -107 108 0 -215z"/>
<path d="M6320 3475 l0 -210 105 105 c58 58 105 105 105 105 0 0 -47 47 -105
105 l-105 105 0 -210z"/>
<path d="M2395 3310 l-110 -110 225 0 225 0 -110 110 c-60 61 -112 110 -115
110 -3 0 -55 -49 -115 -110z"/>
<path d="M4425 3310 l-110 -110 230 0 230 0 -110 110 c-60 61 -114 110 -120
110 -6 0 -60 -49 -120 -110z"/>
<path d="M1820 2983 l0 -158 150 150 c83 82 150 153 150 157 0 5 -67 8 -150 8
l-150 0 0 -157z"/>
<path d="M2240 2930 l0 -210 -210 0 -210 0 0 -273 0 -272 203 -203 202 -202
273 0 272 0 0 205 0 205 210 0 210 0 0 270 0 270 -207 2 -208 3 -3 208 -2 207
-265 0 -265 0 0 -210z"/>
<path d="M3040 2995 c80 -80 146 -145 147 -145 2 0 3 65 3 145 l0 145 -147 0
-148 0 145 -145z"/>
<path d="M3864 3127 c-2 -7 -3 -75 -2 -150 l3 -137 150 150 150 150 -148 0
c-112 0 -149 -3 -153 -13z"/>
<path d="M4280 2930 l0 -210 -210 0 -210 0 2 -267 3 -268 208 -3 207 -2 0
-205 0 -205 272 0 273 0 207 207 208 208 0 267 0 268 -210 0 -210 0 -2 208 -3
207 -267 3 -268 2 0 -210z"/>
<path d="M5080 2985 l155 -155 3 142 c1 78 0 148 -2 155 -4 10 -42 13 -158 13
l-153 0 155 -155z"/>
<path d="M800 2945 l0 -155 157 0 158 0 -155 155 c-85 85 -156 155 -157 155
-2 0 -3 -70 -3 -155z"/>
<path d="M2840 2940 l0 -150 152 0 153 0 -150 150 c-82 83 -151 150 -152 150
-2 0 -3 -67 -3 -150z"/>
<path d="M4055 2940 l-150 -150 153 0 152 0 0 150 c0 83 -1 150 -3 150 -1 0
-70 -67 -152 -150z"/>
<path d="M4880 2940 l0 -150 152 0 153 0 -150 150 c-82 83 -151 150 -152 150
-2 0 -3 -67 -3 -150z"/>
<path d="M6095 2940 l-150 -150 153 0 152 0 0 150 c0 83 -1 150 -3 150 -1 0
-70 -67 -152 -150z"/>
<path d="M2020 2935 l-145 -145 148 0 147 0 0 145 c0 80 -1 145 -3 145 -1 0
-67 -65 -147 -145z"/>
<path d="M1385 2610 l110 -110 107 107 c60 59 108 109 108 110 0 2 -98 3 -217
3 l-218 0 110 -110z"/>
<path d="M3423 2613 l107 -108 107 108 108 107 -215 0 -215 0 108 -107z"/>
<path d="M5453 2613 l107 -108 107 108 108 107 -215 0 -215 0 108 -107z"/>
<path d="M3250 2462 c0 -122 3 -222 8 -222 4 0 56 48 115 108 l107 107 -115
115 -115 115 0 -223z"/>
<path d="M3687 2572 c-59 -59 -107 -112 -107 -117 0 -6 50 -60 110 -120 l110
-110 0 228 c0 125 -1 227 -3 227 -1 0 -51 -48 -110 -108z"/>
<path d="M5300 2460 l0 -215 107 108 108 107 -108 107 -107 108 0 -215z"/>
<path d="M1642 2557 l-102 -102 105 -105 105 -105 0 208 c0 114 -1 207 -3 207
-1 0 -48 -46 -105 -103z"/>
<path d="M3415 2300 c-60 -60 -107 -112 -103 -115 3 -3 103 -4 222 -3 l216 3
-112 113 -113 112 -110 -110z"/>
<path d="M2840 1968 l0 -153 150 150 c83 82 150 151 150 152 0 2 -67 3 -150 3
l-150 0 0 -152z"/>
<path d="M3250 1910 l0 -210 -205 0 -205 0 0 -273 0 -272 203 -203 202 -202
280 0 280 0 203 203 202 202 0 273 0 272 -205 0 -205 0 0 210 0 210 -275 0
-275 0 0 -210z"/>
<path d="M4055 1970 c82 -82 151 -150 152 -150 2 0 3 68 3 150 l0 150 -152 0
-153 0 150 -150z"/>
<path d="M5080 1925 l-155 -155 158 0 157 0 0 155 c0 85 -1 155 -3 155 -1 0
-72 -70 -157 -155z"/>
<path d="M1820 1921 l0 -151 155 0 c85 0 155 2 155 4 0 2 -70 70 -155 151
l-155 147 0 -151z"/>
<path d="M3035 1920 l-150 -150 153 0 152 0 0 150 c0 83 -1 150 -3 150 -1 0
-70 -67 -152 -150z"/>
<path d="M3860 1920 l0 -150 152 0 153 0 -150 150 c-82 83 -151 150 -152 150
-2 0 -3 -67 -3 -150z"/>
<path d="M2403 1593 l107 -108 107 108 108 107 -215 0 -215 0 108 -107z"/>
<path d="M4433 1593 l107 -108 107 108 108 107 -215 0 -215 0 108 -107z"/>
<path d="M2660 1545 l-105 -105 108 -108 107 -107 0 213 c0 116 -1 212 -3 212
-1 0 -49 -47 -107 -105z"/>
<path d="M4280 1440 l0 -215 107 108 108 107 -108 107 -107 108 0 -215z"/>
<path d="M2840 905 l0 -155 157 0 158 0 -155 155 c-85 85 -156 155 -157 155
-2 0 -3 -70 -3 -155z"/>
<path d="M4055 900 l-150 -150 153 0 152 0 0 150 c0 83 -1 150 -3 150 -1 0
-70 -67 -152 -150z"/>
<path d="M3420 575 c58 -58 105 -105 105 -105 0 0 47 47 105 105 l105 105
-210 0 -210 0 105 -105z"/>
</g>
</svg>
